<svg width="323.738" height="108.602" viewBox="0 0 323.738 108.602" xmlns="http://www.w3.org/2000/svg"><g id="svgGroup" stroke-linecap="round" fill-rule="evenodd" font-size="9pt" stroke="#000" stroke-width="0.25mm" fill="#000" style="stroke:#000;stroke-width:0.25mm;fill:#000"><path d="M 15.918 100.916 L 15.922 100.894 A 249.384 249.384 0 0 0 15.974 100.647 C 16.106 100.023 16.235 99.399 16.343 98.867 A 162.672 162.672 0 0 0 16.443 98.368 A 129.13 129.13 0 0 1 16.536 97.943 A 118.52 118.52 0 0 1 18.255 91.09 C 20.835 81.981 25.188 68.153 28.555 58.989 A 199.537 199.537 0 0 1 28.794 58.342 C 28.834 58.234 28.875 58.126 28.915 58.018 A 355.757 355.757 0 0 1 38.533 55.261 A 197.568 197.568 0 0 1 44.183 53.813 A 131.043 131.043 0 0 1 65.999 50.319 C 65.778 52.912 65.56 55.505 65.355 58.101 A 358.75 358.75 0 0 0 64.85 66.005 C 64.846 66.07 64.843 66.134 64.839 66.199 A 1261.838 1261.838 0 0 1 64.732 68.069 A 162.765 162.765 0 0 0 64.445 77.51 A 128.161 128.161 0 0 0 64.719 86.031 C 64.857 88.104 65.133 90.177 65.626 92.22 C 65.914 93.411 66.287 94.574 66.849 95.677 C 67.9 97.738 69.532 98.839 71.751 99.002 A 8.274 8.274 0 0 0 72.362 99.025 A 8.274 8.274 0 0 0 76.681 97.776 C 78.157 96.89 79.488 95.807 80.699 94.582 A 1533.295 1533.295 0 0 0 88.651 86.464 L 89.312 85.785 C 89.621 85.468 89.921 85.129 90.147 84.749 A 3.628 3.628 0 0 1 90.256 84.58 C 90.469 84.265 90.714 83.923 90.449 83.511 A 1.005 1.005 0 0 0 90.164 83.215 C 89.903 83.039 89.578 83.007 89.254 83.014 A 5.279 5.279 0 0 0 89.071 83.022 A 1.052 1.052 0 0 0 88.66 83.129 C 88.404 83.255 88.206 83.473 87.992 83.701 C 84.542 87.392 80.942 90.924 77.181 94.278 A 19.95 19.95 0 0 1 75.071 95.884 A 10.71 10.71 0 0 1 73.334 96.841 A 6.034 6.034 0 0 1 72.983 96.983 C 71.975 97.349 71.534 97.094 70.823 95.949 A 10.116 10.116 0 0 1 69.671 93.028 C 69.117 90.818 68.845 88.575 68.738 86.323 A 110.695 110.695 0 0 1 68.616 81.04 A 208.737 208.737 0 0 1 69.748 61.531 C 69.934 59.552 70.158 57.233 70.402 54.743 A 5373.098 5373.098 0 0 1 70.858 50.109 A 87.593 87.593 0 0 1 72.214 50.091 C 76.679 50.071 81.975 49.936 86.289 51.653 C 86.496 51.735 86.807 51.813 86.904 52.037 A 0.497 0.497 0 0 1 86.945 52.237 C 86.945 52.741 86.273 53.304 86.683 53.926 A 1.013 1.013 0 0 0 86.724 53.984 A 1.047 1.047 0 0 0 87.466 54.355 C 87.507 54.359 87.547 54.361 87.587 54.361 A 3.245 3.245 0 0 0 87.614 54.361 C 90.555 54.361 91.31 50.341 88.726 49.117 A 6.286 6.286 0 0 1 88.683 49.096 C 87.494 48.523 83.501 46.221 71.412 46.631 A 90.617 90.617 0 0 0 71.202 46.638 C 71.737 41.232 72.274 35.83 72.655 31.82 C 72.659 31.783 72.659 31.738 72.663 31.699 A 0.592 0.592 0 0 1 72.663 31.692 C 72.786 30.502 72.899 29.31 72.987 28.116 A 104.205 104.205 0 0 0 73.3 20.507 A 57.392 57.392 0 0 0 72.629 11.38 A 22.845 22.845 0 0 0 70.412 4.189 A 3.536 3.536 0 0 0 70.267 3.948 C 69.557 2.847 66.602 -0.899 61.263 0.199 A 10.538 10.538 0 0 0 61.128 0.228 C 59.918 0.493 58.704 0.896 57.611 1.478 C 55.208 2.86 53.198 4.75 51.326 6.802 C 47.538 10.959 44.382 15.585 41.517 20.387 A 204.907 204.907 0 0 0 30.449 42.061 C 28.418 46.62 26.527 51.225 24.761 55.866 A 328.025 328.025 0 0 0 19.61 57.621 A 674.712 674.712 0 0 0 2.574 63.902 C 1.847 64.176 -0.626 64.933 0.148 66.137 A 1.363 1.363 0 0 0 0.886 66.655 C 0.968 66.683 1.052 66.705 1.136 66.724 A 4.052 4.052 0 0 0 2.029 66.82 C 3.091 66.82 4.162 66.451 5.148 66.083 A 106.127 106.127 0 0 0 5.411 65.984 A 375.173 375.173 0 0 1 14.361 62.744 A 370.911 370.911 0 0 1 23.311 59.758 A 305.75 305.75 0 0 0 20.324 68.357 C 18.8 72.957 17.303 77.568 16.015 82.215 A 359.756 359.756 0 0 0 13.317 92.394 A 509.225 509.225 0 0 1 13.065 93.415 A 98.651 98.651 0 0 0 11.997 98.044 A 5.093 5.093 0 0 0 11.952 98.248 C 11.914 98.437 11.874 98.667 11.833 98.917 A 92.802 92.802 0 0 0 11.81 99.058 A 42.085 42.085 0 0 0 11.752 99.406 A 44.882 44.882 0 0 1 11.703 99.696 C 11.546 100.608 11.35 101.52 11.071 101.646 C 10.862 101.74 10.63 101.726 10.409 101.714 C 9.736 101.679 8.967 101.999 9.227 102.803 C 9.574 103.875 10.199 104.91 11.204 105.429 L 11.206 105.429 C 12.586 106.141 14.131 105.858 14.919 104.597 A 3.242 3.242 0 0 0 15.289 103.741 A 6.981 6.981 0 0 0 15.334 103.567 C 15.455 103.076 15.685 102.019 15.918 100.916 Z M 217.895 108.562 A 14.808 14.808 0 0 0 218.976 108.602 A 19.63 19.63 0 0 0 226.916 106.721 C 230.726 105.037 234.161 102.555 237.428 99.725 A 95.845 95.845 0 0 0 247.311 89.539 A 6.394 6.394 0 0 0 247.508 89.294 C 248.299 88.268 250.065 85.685 251.06 86.149 A 1.642 1.642 0 0 0 251.405 86.267 C 252.548 86.516 253.692 85.404 253.348 83.179 A 1.681 1.681 0 0 1 253.309 82.817 C 253.309 81.74 254.309 80.788 254.658 80.316 A 194.826 194.826 0 0 0 265.487 64.051 A 111.48 111.48 0 0 0 275.672 42.851 A 59.946 59.946 0 0 0 279.241 23.591 A 44.261 44.261 0 0 0 279.159 20.888 A 26.765 26.765 0 0 0 277.426 12.53 A 17.899 17.899 0 0 0 274.055 7.098 A 17.299 17.299 0 0 0 268.263 2.889 A 21.426 21.426 0 0 0 262.293 1.254 C 257.421 0.604 252.533 0.967 247.642 2.01 A 63.151 63.151 0 0 0 217.568 18.421 A 89.703 89.703 0 0 0 214.35 21.582 A 12.011 12.011 0 0 0 212.902 23.362 C 212.07 24.637 212.321 25.605 213.538 25.887 A 2.815 2.815 0 0 0 213.68 25.916 C 214.309 26.028 214.953 26.068 215.597 26.001 A 5.713 5.713 0 0 0 216.263 25.893 A 5.232 5.232 0 0 1 216.434 25.858 C 216.813 25.786 217.242 25.714 217.4 25.302 A 0.863 0.863 0 0 0 217.436 25.178 A 1.038 1.038 0 0 0 217.45 25.103 C 217.534 24.527 216.983 24.508 216.657 24.285 A 0.642 0.642 0 0 1 216.571 24.215 A 0.244 0.244 0 0 1 216.52 24.137 C 216.489 24.065 216.473 23.971 216.446 23.893 A 0.637 0.637 0 0 0 216.442 23.883 A 27.335 27.335 0 0 1 218.193 21.924 C 224.152 15.811 236.331 7.5 242.548 5.911 A 11.351 11.351 0 0 1 242.893 5.828 A 152.386 152.386 0 0 0 242.107 8.016 C 231.853 37.244 231.487 66.473 231.91 76.699 A 96.782 96.782 0 0 0 231.923 77.001 A 0.592 0.592 0 0 1 231.924 77.027 C 231.924 77.885 230.068 78.625 229.762 78.751 A 4.854 4.854 0 0 0 229.751 78.755 A 34.043 34.043 0 0 0 215.182 89.954 A 37.547 37.547 0 0 0 213.776 91.957 C 212.415 94.035 211.36 96.296 210.902 98.813 A 14.587 14.587 0 0 0 210.691 100.514 C 210.499 103.59 211.46 106.162 214.093 107.545 A 9.558 9.558 0 0 0 217.895 108.562 Z M 175.699 48.294 L 175.696 48.308 A 68.761 68.761 0 0 0 175.029 52.415 C 173.954 60.442 173.63 71.696 175.946 78.319 L 175.946 78.322 A 7.254 7.254 0 0 0 176.633 79.903 C 178.002 82.225 180.353 82.997 181.762 82.77 A 2.482 2.482 0 0 0 181.966 82.728 L 181.968 82.728 C 182.952 82.483 183.262 82.154 183.16 81.242 A 3.783 3.783 0 0 1 183.137 80.819 A 7.123 7.123 0 0 1 183.331 79.344 A 5306.24 5306.24 0 0 0 183.342 79.294 C 183.614 78.005 183.887 76.714 184.234 75.439 C 185.281 71.595 186.656 67.847 188.835 64.35 A 19.893 19.893 0 0 0 188.976 64.119 C 189.248 63.669 189.519 63.212 189.945 62.86 A 2.471 2.471 0 0 1 190.137 62.717 A 1.773 1.773 0 0 1 190.451 62.92 C 190.702 63.124 190.856 63.365 191.01 63.598 A 3.846 3.846 0 0 0 191.232 63.909 A 34.28 34.28 0 0 1 191.739 64.553 C 192.072 64.984 192.406 65.415 192.781 65.817 A 5.191 5.191 0 0 0 196.497 67.512 C 196.848 67.528 197.213 67.515 197.592 67.476 A 8.854 8.854 0 0 0 197.867 67.443 A 8.214 8.214 0 0 0 200.269 66.752 A 7.951 7.951 0 0 0 202.598 65.075 A 10.621 10.621 0 0 0 204.753 61.739 C 205.156 60.797 205.466 59.822 205.776 58.848 A 85.559 85.559 0 0 1 206.121 57.78 A 0.937 0.937 0 0 0 206.151 57.667 C 206.223 57.305 206.009 57.083 205.594 56.986 A 2.155 2.155 0 0 0 205.28 56.939 A 4.64 4.64 0 0 0 204.968 56.924 C 203.939 56.91 203.177 57.274 202.668 58.08 A 3.205 3.205 0 0 0 202.555 58.274 C 202.215 58.908 201.896 59.551 201.578 60.193 A 61.933 61.933 0 0 1 200.556 62.194 A 9.218 9.218 0 0 1 198.658 64.818 A 5.634 5.634 0 0 1 198.02 65.309 A 3.151 3.151 0 0 1 197.153 64.789 C 196.776 64.475 196.48 64.099 196.184 63.726 A 16.333 16.333 0 0 0 195.848 63.312 C 195.284 62.646 194.775 61.944 194.2 61.286 A 3.442 3.442 0 0 0 191.85 60.114 A 4.03 4.03 0 0 0 191.605 60.101 C 190.398 60.074 189.259 60.228 188.248 60.68 A 5.425 5.425 0 0 0 186.593 61.826 C 185.735 62.692 185.032 63.643 184.424 64.65 C 182.648 67.59 181.362 70.686 180.449 73.903 A 7.448 7.448 0 0 1 180.443 73.924 C 180.316 74.368 180.086 75.021 179.731 76.418 C 178.863 73.097 178.071 68.878 178.095 63.354 C 178.095 63.193 178.138 62.711 178.188 62.095 A 135.34 135.34 0 0 0 178.202 61.924 C 178.323 60.766 178.554 60.064 178.86 59.684 A 1.347 1.347 0 0 1 178.877 59.662 C 182.842 54.942 186.31 49.873 189.36 44.518 C 193.46 37.345 196.816 29.86 198.468 21.715 A 28.856 28.856 0 0 0 199.186 16.009 A 14.124 14.124 0 0 0 198.935 13.298 C 198.581 11.477 197.484 10.351 195.878 10.193 A 6.018 6.018 0 0 0 195.29 10.164 C 190.953 10.164 188.33 14.95 187.353 16.641 A 33.971 33.971 0 0 1 187.307 16.719 C 184.03 22.309 181.602 28.281 179.516 34.388 C 177.948 38.964 176.596 43.583 175.699 48.294 Z M 293.545 81.631 L 293.56 81.499 L 293.547 81.631 A 6.392 6.392 0 0 0 294.109 81.657 C 295.622 81.657 296.874 81.075 297.911 79.791 A 33.077 33.077 0 0 0 301.356 74.445 C 303.751 69.925 305.607 66.018 307.669 61.496 A 629.693 629.693 0 0 0 308.243 60.232 A 23.048 23.048 0 0 0 308.966 58.365 C 308.978 58.33 308.99 58.295 309.002 58.261 A 235.137 235.137 0 0 1 309.064 58.085 A 1.411 1.411 0 0 0 309.11 57.929 C 309.221 57.438 308.97 57.137 308.499 56.981 A 1.869 1.869 0 0 0 308.446 56.964 A 2.43 2.43 0 0 0 308.022 56.875 C 307.282 56.791 306.634 57.106 306.099 57.844 A 3.85 3.85 0 0 0 306.016 57.962 A 29.728 29.728 0 0 0 304.047 61.582 C 303.919 61.847 303.791 62.111 303.661 62.375 A 528.883 528.883 0 0 1 302.492 64.743 C 300.769 68.207 299.17 71.289 297.136 74.855 A 34.841 34.841 0 0 1 296.752 75.51 C 296.132 76.543 295.296 77.817 294.501 78.691 C 294.269 78.001 294.224 75.92 294.219 75.599 A 11.038 11.038 0 0 1 294.218 75.557 C 294.13 73.044 294.374 70.55 294.724 68.072 A 928.429 928.429 0 0 1 295.043 65.832 C 295.718 61.137 296.362 57.17 297.585 52.646 A 82.662 82.662 0 0 1 298.38 49.899 A 4.573 4.573 0 0 0 298.458 49.619 C 298.711 48.564 298.305 48.212 297.095 48.212 A 6.392 6.392 0 0 0 297.061 48.212 A 2.471 2.471 0 0 0 296.275 48.332 C 295.888 48.465 295.578 48.712 295.36 49.103 A 2.151 2.151 0 0 0 295.26 49.306 A 30.804 30.804 0 0 0 294.399 51.547 L 294.383 51.581 A 94.662 94.662 0 0 1 293.478 53.788 C 292.526 56.028 291.658 57.818 290.783 59.608 A 828.998 828.998 0 0 0 290.157 60.888 A 65.991 65.991 0 0 1 284.369 70.921 A 36.418 36.418 0 0 1 283.104 72.558 A 50.011 50.011 0 0 0 283.099 72.564 C 282.559 73.223 282.427 73.404 281.781 73.899 C 281.81 73.877 281.389 72.545 281.359 72.399 A 10.285 10.285 0 0 1 281.17 70.894 A 16.2 16.2 0 0 1 281.15 70.081 A 32.314 32.314 0 0 1 281.676 64.978 C 281.996 62.978 282.386 60.99 282.84 59.017 C 283.201 57.448 283.601 55.887 284.04 54.338 A 5.345 5.345 0 0 0 284.11 54.066 C 284.295 53.254 284.129 52.846 283.231 52.88 A 3.224 3.224 0 0 0 283.122 52.886 C 282.164 52.955 281.424 53.583 280.857 54.683 C 279.733 56.863 278.95 59.166 278.357 61.539 A 36.069 36.069 0 0 0 277.055 70.072 C 277.052 71.12 277.126 72.167 277.301 73.21 C 277.311 73.271 277.322 73.332 277.333 73.393 C 277.748 75.701 278.7 76.826 280.425 77.214 A 5.335 5.335 0 0 0 280.466 77.223 C 282.061 77.569 283.345 76.987 284.493 76 A 11.717 11.717 0 0 0 285.472 75.041 A 37.81 37.81 0 0 0 290.195 68.418 A 71.612 71.612 0 0 0 290.79 67.375 A 48.189 48.189 0 0 0 290.269 74.101 A 34.309 34.309 0 0 0 290.347 76.447 C 290.424 77.581 290.634 78.679 291.019 79.745 A 3.119 3.119 0 0 0 291.537 80.684 C 291.902 81.127 292.388 81.41 293.001 81.549 A 4.085 4.085 0 0 0 293.547 81.632 L 293.545 81.631 Z M 248.71 79.308 A 19.759 19.759 0 0 0 238.889 77.046 A 32.384 32.384 0 0 0 238.491 77.048 C 238.255 77.051 238.02 77.029 237.784 77.037 C 237.207 77.055 236.97 76.757 236.97 76.123 A 2.633 2.633 0 0 1 236.97 76.087 A 7.004 7.004 0 0 0 236.971 75.99 C 236.971 73.579 236.369 44.409 243.439 15.24 A 165.412 165.412 0 0 1 246.084 5.574 A 1.26 1.26 0 0 1 246.196 5.324 C 246.391 4.999 246.679 4.932 246.967 4.865 A 10.758 10.758 0 0 0 247.041 4.847 A 44.51 44.51 0 0 1 257.464 3.424 A 29.522 29.522 0 0 1 259.735 3.51 A 17.854 17.854 0 0 1 265.385 4.755 A 15.054 15.054 0 0 1 274.127 14.59 A 23.634 23.634 0 0 1 274.944 18.152 A 32.601 32.601 0 0 1 275.311 23.088 A 48.006 48.006 0 0 1 273.623 34.997 A 92.267 92.267 0 0 1 263.87 57.814 A 204.812 204.812 0 0 1 250.655 78.102 C 250.588 78.193 250.519 78.282 250.451 78.372 A 8.766 8.766 0 0 0 250.077 78.882 A 2.194 2.194 0 0 1 249.87 79.154 C 249.58 79.472 249.26 79.565 248.833 79.371 A 1.716 1.716 0 0 1 248.71 79.308 Z M 93.005 80.526 L 93.905 80.526 A 2.874 2.874 0 0 0 94.759 80.346 C 95.686 79.984 96.099 79.129 95.705 78.026 A 1.045 1.045 0 0 1 95.647 77.88 C 95.599 77.734 95.581 77.602 95.505 77.526 L 95.505 77.226 A 34.88 34.88 0 0 1 96.316 74.083 C 98.141 68.111 101.528 61.964 103.905 59.926 A 0.796 0.796 0 0 1 104.063 60.186 C 104.637 61.454 105.993 66.707 108.465 68.188 A 2.738 2.738 0 0 0 109.305 68.526 C 110.805 68.826 113.705 67.926 117.105 58.526 C 117.301 58.037 117.496 57.071 116.664 57.028 A 1.138 1.138 0 0 0 116.605 57.026 A 2.949 2.949 0 0 0 116.275 57.046 C 115.62 57.12 114.764 57.415 114.377 58.085 A 1.498 1.498 0 0 0 114.305 58.226 A 94.729 94.729 0 0 0 113.998 58.846 C 112.723 61.443 111.571 64.041 110.63 65.183 A 1.925 1.925 0 0 1 110.005 65.726 A 1.299 1.299 0 0 1 109.779 65.413 C 108.825 63.751 106.684 56.926 104.205 56.926 C 101.616 56.926 97.464 62.535 95.099 67.316 A 33.111 33.111 0 0 0 94.805 67.926 C 95.377 64.21 97.402 54.228 98.456 50.441 A 23.87 23.87 0 0 1 98.605 49.926 L 99.305 47.526 C 99.595 46.946 99.324 46.646 98.853 46.446 A 2.452 2.452 0 0 0 98.805 46.426 A 1.968 1.968 0 0 0 98.409 46.313 C 97.568 46.167 96.812 46.647 96.205 47.426 C 95.705 48.426 95.305 49.426 94.905 50.426 C 94.005 52.926 93.405 55.426 92.805 57.926 C 91.505 63.126 90.305 68.426 90.405 73.926 A 71.078 71.078 0 0 1 90.444 74.618 C 90.518 76.012 90.591 77.469 91.105 78.926 C 91.468 79.923 91.666 80.345 92.669 80.49 A 5.107 5.107 0 0 0 93.005 80.526 Z M 43.1 26.238 A 256.073 256.073 0 0 0 30.419 54.062 A 173.978 173.978 0 0 1 50.781 49.037 A 207.22 207.22 0 0 1 56.197 48.142 C 59.971 47.572 63.317 47.183 66.285 46.936 A 1938.087 1938.087 0 0 0 66.744 41.483 A 10.124 10.124 0 0 1 66.748 41.443 C 66.978 38.767 69.654 18.763 67.344 7.863 A 24.813 24.813 0 0 0 66.764 5.959 C 66.507 5.231 66.205 4.518 65.829 3.844 A 13.424 13.424 0 0 1 65.774 3.743 C 65.646 3.51 65.511 3.254 65.348 3.027 A 1.415 1.415 0 0 0 64.493 2.403 A 2.014 2.014 0 0 0 64.098 2.366 C 64.041 2.366 63.983 2.368 63.926 2.372 A 3.627 3.627 0 0 0 63.079 2.546 A 12.835 12.835 0 0 0 59.846 4.312 A 201.482 201.482 0 0 1 59.214 4.745 C 56.841 6.511 54.847 8.679 52.989 10.97 A 95.037 95.037 0 0 0 43.1 26.238 Z M 119.905 79.326 C 120.705 79.426 121.905 79.326 122.705 79.026 C 124.805 78.526 126.405 77.126 127.805 75.426 C 129.805 72.826 131.505 70.126 133.005 67.126 A 150.271 150.271 0 0 1 133.802 65.393 C 135.273 62.242 136.181 60.541 137.219 57.426 A 0.738 0.738 0 0 0 137.258 57.296 C 137.315 57.01 137.171 56.765 136.936 56.604 A 1.175 1.175 0 0 0 136.505 56.426 C 135.716 56.189 135.114 56.326 134.6 56.837 A 3.148 3.148 0 0 0 134.205 57.326 A 88.494 88.494 0 0 0 133.408 58.83 C 132.04 61.471 131.246 63.327 129.227 67.038 A 146.604 146.604 0 0 1 128.905 67.626 C 127.705 70.026 126.205 72.126 124.605 74.226 C 123.805 75.226 123.005 76.026 121.905 76.726 C 120.944 77.399 120.353 77.517 119.421 76.639 A 5.504 5.504 0 0 1 119.305 76.526 A 7.162 7.162 0 0 1 117.896 74.134 A 8.387 8.387 0 0 1 117.705 73.526 A 16.693 16.693 0 0 1 116.926 68.226 C 116.926 67.189 116.995 66.151 117.105 65.126 C 117.105 64.726 117.305 64.426 117.805 64.326 A 7.283 7.283 0 0 0 120.348 63.339 A 13.791 13.791 0 0 0 122.005 62.126 C 124.505 59.826 126.505 57.226 127.805 54.126 A 7.656 7.656 0 0 0 128.698 51.106 A 5.461 5.461 0 0 0 128.705 50.826 A 4.282 4.282 0 0 0 128.727 50.4 C 128.727 48.918 127.917 47.767 126.526 47.313 A 4.274 4.274 0 0 0 125.605 47.126 C 123.305 46.826 121.005 47.426 119.405 48.926 C 118.105 50.126 117.305 51.526 116.605 53.126 C 115.405 55.626 114.405 58.326 113.805 61.026 C 112.515 66.586 112.801 71.16 112.903 71.911 A 2.357 2.357 0 0 0 112.905 71.926 A 11.393 11.393 0 0 0 114.682 76.493 A 8.51 8.51 0 0 0 114.705 76.526 A 5.874 5.874 0 0 0 118.871 79.254 A 7.182 7.182 0 0 0 119.905 79.326 Z M 139.205 79.326 C 140.005 79.426 141.205 79.326 142.005 79.026 C 144.105 78.526 145.705 77.126 147.105 75.426 C 149.105 72.826 150.805 70.126 152.305 67.126 A 150.271 150.271 0 0 1 153.102 65.393 C 154.573 62.242 155.481 60.541 156.519 57.426 A 0.738 0.738 0 0 0 156.558 57.296 C 156.615 57.01 156.471 56.765 156.236 56.604 A 1.175 1.175 0 0 0 155.805 56.426 C 155.016 56.189 154.414 56.326 153.9 56.837 A 3.148 3.148 0 0 0 153.505 57.326 A 88.494 88.494 0 0 0 152.708 58.83 C 151.34 61.471 150.546 63.327 148.527 67.038 A 146.604 146.604 0 0 1 148.205 67.626 C 147.005 70.026 145.505 72.126 143.905 74.226 C 143.105 75.226 142.305 76.026 141.205 76.726 C 140.244 77.399 139.653 77.517 138.721 76.639 A 5.504 5.504 0 0 1 138.605 76.526 A 7.162 7.162 0 0 1 137.196 74.134 A 8.387 8.387 0 0 1 137.005 73.526 A 16.693 16.693 0 0 1 136.226 68.226 C 136.226 67.189 136.295 66.151 136.405 65.126 C 136.405 64.726 136.605 64.426 137.105 64.326 A 7.283 7.283 0 0 0 139.648 63.339 A 13.791 13.791 0 0 0 141.305 62.126 C 143.805 59.826 145.805 57.226 147.105 54.126 A 7.656 7.656 0 0 0 147.998 51.106 A 5.461 5.461 0 0 0 148.005 50.826 A 4.282 4.282 0 0 0 148.027 50.4 C 148.027 48.918 147.217 47.767 145.826 47.313 A 4.274 4.274 0 0 0 144.905 47.126 C 142.605 46.826 140.305 47.426 138.705 48.926 C 137.405 50.126 136.605 51.526 135.905 53.126 C 134.705 55.626 133.705 58.326 133.105 61.026 C 131.815 66.586 132.101 71.16 132.203 71.911 A 2.357 2.357 0 0 0 132.205 71.926 A 11.393 11.393 0 0 0 133.982 76.493 A 8.51 8.51 0 0 0 134.005 76.526 A 5.874 5.874 0 0 0 138.171 79.254 A 7.182 7.182 0 0 0 139.205 79.326 Z M 321.804 61.326 L 322.104 59.226 A 75.737 75.737 0 0 1 322.617 56.376 A 230.554 230.554 0 0 1 323.204 53.526 A 29.203 29.203 0 0 0 323.571 51.948 C 323.748 51.022 323.821 50.096 323.603 49.108 A 5.74 5.74 0 0 0 323.504 48.726 A 3.567 3.567 0 0 0 321.326 46.395 C 321.084 46.304 320.84 46.246 320.604 46.226 A 10.692 10.692 0 0 0 319.716 46.189 A 9.521 9.521 0 0 0 313.904 48.126 C 312.704 49.026 311.604 49.926 310.604 51.126 C 307.104 55.226 304.904 60.026 303.704 65.226 C 303.004 67.826 302.804 70.426 303.004 73.026 C 303.004 74.126 303.204 75.226 303.704 76.226 C 304.078 77.25 304.883 77.754 305.88 77.819 A 3.472 3.472 0 0 0 306.105 77.826 A 4.958 4.958 0 0 0 306.485 77.841 C 307.159 77.841 307.773 77.695 308.311 77.388 A 3.48 3.48 0 0 0 309.305 76.526 C 310.405 75.326 311.205 74.026 311.905 72.626 C 314.405 68.126 316.305 63.226 317.905 58.326 A 2.979 2.979 0 0 0 317.983 58.026 C 318.015 57.881 318.048 57.736 318.114 57.59 A 1.173 1.173 0 0 1 318.205 57.426 C 315.305 71.926 316.705 78.026 317.505 80.226 C 318.186 81.878 319.621 83.53 321.17 83.53 A 2.163 2.163 0 0 0 321.305 83.526 A 5.587 5.587 0 0 0 321.741 83.511 C 322.663 83.438 322.818 83.078 322.204 82.026 C 320.419 78.901 320.626 75.059 320.833 71.709 A 190.174 190.174 0 0 0 320.904 70.526 C 321.004 67.426 321.304 64.326 321.804 61.326 Z M 157.048 81.008 A 16.168 16.168 0 0 0 166.239 76.867 A 11.565 11.565 0 0 0 167.907 74.864 A 6.673 6.673 0 0 0 167.958 74.786 C 168.778 73.492 169.599 71.238 169.504 68.985 A 7.107 7.107 0 0 0 169.037 66.682 A 0.971 0.971 0 0 1 168.973 66.326 C 168.973 66.067 169.062 65.8 169.19 65.592 A 1.307 1.307 0 0 1 169.274 65.47 C 169.491 65.193 171.536 63.517 173.254 62.542 A 10.965 10.965 0 0 1 173.714 62.294 C 174.161 62.067 174.6 61.921 175.165 62.065 C 175.864 62.244 176.461 61.991 176.978 61.592 A 4.026 4.026 0 0 0 177.037 61.545 A 1.204 1.204 0 0 0 177.191 61.399 C 177.587 60.945 177.347 60.411 176.579 60.178 A 4.177 4.177 0 0 0 176.344 60.114 C 175.715 59.963 175.086 59.967 174.47 60.067 A 13.046 13.046 0 0 0 171.445 61.015 A 37.648 37.648 0 0 0 171.352 61.054 C 169.573 61.812 169.271 62.045 167.759 62.999 A 123.472 123.472 0 0 1 167.6 63.099 C 167.358 63.24 167.143 63.365 166.99 63.45 A 9.921 9.921 0 0 1 166.981 63.455 A 10.671 10.671 0 0 0 166.075 62.56 C 163.079 59.899 157.42 56.958 157.42 54.857 A 1.093 1.093 0 0 1 157.503 54.435 A 8.435 8.435 0 0 0 157.553 54.313 C 157.677 54 157.706 53.873 157.903 53.529 C 158.94 51.724 160.431 50.285 162.355 49.204 C 162.942 48.875 163.57 48.607 164.253 48.433 A 13.232 13.232 0 0 1 164.571 48.356 C 165.709 48.097 166.061 48.245 166.363 49.446 A 8.04 8.04 0 0 1 166.38 49.515 A 2.32 2.32 0 0 1 166.426 49.755 C 166.441 49.866 166.447 49.977 166.441 50.084 A 0.653 0.653 0 0 0 166.44 50.122 C 166.44 50.355 166.57 50.501 166.758 50.601 A 1.445 1.445 0 0 0 166.978 50.694 C 167.593 50.901 168.067 50.759 168.299 50.307 A 1.201 1.201 0 0 0 168.366 50.147 A 2.269 2.269 0 0 0 168.478 49.646 C 168.542 49.018 168.307 48.422 167.747 47.877 A 3.643 3.643 0 0 0 167.646 47.782 A 4.683 4.683 0 0 0 165.402 46.69 C 164.724 46.551 164.066 46.483 163.427 46.483 A 8.672 8.672 0 0 0 159.93 47.214 C 157.292 48.362 155.27 50.074 153.902 52.368 C 153.694 52.718 153.514 53.091 153.391 53.477 C 152.81 55.301 153.265 56.998 154.98 58.526 C 155.751 59.213 161.845 63.363 163.185 64.614 A 2.108 2.108 0 0 1 163.383 64.82 A 1.068 1.068 0 0 1 163.451 64.914 C 163.646 65.219 163.521 65.419 163.426 65.484 A 0.196 0.196 0 0 1 163.416 65.49 C 152.828 71.855 151.888 75.677 151.635 77.02 A 13.874 13.874 0 0 0 151.632 77.034 C 151.39 78.39 151.867 81.49 156.744 81.04 A 11.993 11.993 0 0 0 157.048 81.008 Z M 180.008 46.882 A 62.767 62.767 0 0 0 178.869 53.597 C 179.168 53.543 179.252 53.394 179.336 53.267 A 1.335 1.335 0 0 1 179.362 53.229 A 101.093 101.093 0 0 0 192.043 29.559 C 193.653 25.093 194.966 20.541 195.061 15.737 A 11.239 11.239 0 0 0 195.063 15.526 C 195.063 14.538 194.926 13.577 194.474 12.595 A 3.837 3.837 0 0 0 194.059 12.895 C 193.61 13.266 193.278 13.703 192.946 14.128 A 33.344 33.344 0 0 1 192.859 14.238 C 191.393 16.096 190.219 18.142 189.168 20.252 A 114.243 114.243 0 0 0 180.008 46.882 Z M 218.872 105.795 A 4.324 4.324 0 0 0 219.189 105.783 C 219.589 105.753 219.99 105.643 220.387 105.549 A 21.878 21.878 0 0 0 226.879 102.571 A 31.504 31.504 0 0 0 228.068 101.783 C 230.495 100.097 233.223 97.783 235.172 95.936 C 232.651 91.192 232.385 82.448 232.144 80.544 A 32.637 32.637 0 0 0 231.871 80.677 A 34.278 34.278 0 0 0 217.536 93.993 A 15.646 15.646 0 0 0 215.761 98.565 A 11.309 11.309 0 0 0 215.481 100.955 A 7.326 7.326 0 0 0 215.879 103.402 A 4.995 4.995 0 0 0 216.356 104.416 C 216.936 105.338 217.766 105.795 218.872 105.795 Z M 306.669 72.082 A 7.639 7.639 0 0 0 307.205 74.426 A 4.5 4.5 0 0 0 307.891 73.791 A 7.937 7.937 0 0 0 308.805 72.426 C 310.405 69.726 311.805 66.926 312.905 64.026 C 314.191 60.74 315.222 57.404 316.252 54.089 A 301.725 301.725 0 0 1 317.505 50.126 C 317.505 49.947 317.586 49.767 317.385 49.66 A 0.516 0.516 0 0 0 317.305 49.626 A 2.948 2.948 0 0 0 316.736 49.859 A 8.076 8.076 0 0 0 315.405 50.826 C 313.805 52.226 312.605 53.726 311.605 55.426 C 309.005 59.726 307.305 64.326 306.705 69.326 A 30.73 30.73 0 0 0 306.635 71.129 C 306.635 71.447 306.644 71.765 306.669 72.082 Z M 238.006 92.59 A 0.405 0.405 0 0 0 238.023 92.662 C 238.073 92.813 238.21 92.964 238.38 93.262 A 137.835 137.835 0 0 0 247.576 82.293 A 6.022 6.022 0 0 1 247.537 82.215 C 247.456 82.051 247.431 81.98 247.403 81.944 A 0.1 0.1 0 0 0 247.385 81.925 A 11.386 11.386 0 0 0 246.927 81.582 C 244.618 79.94 242.04 79.424 239.342 79.424 A 24.471 24.471 0 0 0 237.771 79.477 C 237.001 79.527 236.976 80.204 237.001 80.836 A 116.815 116.815 0 0 0 238.006 92.59 Z M 117.905 61.026 L 118.205 59.526 C 118.355 59.076 118.505 58.601 118.655 58.114 A 222.413 222.413 0 0 0 119.105 56.626 C 119.505 55.326 120.005 54.026 120.605 52.826 A 7.511 7.511 0 0 1 121.366 51.318 A 6.633 6.633 0 0 1 121.805 50.726 A 3.499 3.499 0 0 1 122.493 49.839 A 30.565 30.565 0 0 1 122.605 49.726 A 10.543 10.543 0 0 1 123.21 49.152 A 3.22 3.22 0 0 1 123.505 48.926 C 123.705 48.826 123.905 48.726 124.105 48.726 A 2.847 2.847 0 0 1 124.36 48.823 A 1.402 1.402 0 0 1 124.805 49.126 A 3.183 3.183 0 0 1 125.005 49.625 C 125.046 49.761 125.075 49.892 125.091 50.013 A 1.653 1.653 0 0 1 125.105 50.226 A 2.922 2.922 0 0 1 125.144 50.707 C 125.144 51.141 125.052 51.56 124.905 51.926 C 124.405 53.626 123.705 55.226 122.805 56.726 C 121.905 58.226 120.805 59.626 119.605 60.926 C 119.063 61.378 118.603 61.911 117.929 62.157 A 2.218 2.218 0 0 1 117.705 62.226 A 0.074 0.074 0 0 1 117.689 62.196 C 117.632 62.019 117.812 61.306 117.905 61.026 Z M 137.205 61.026 L 137.505 59.526 C 137.655 59.076 137.805 58.601 137.955 58.114 A 222.413 222.413 0 0 0 138.405 56.626 C 138.805 55.326 139.305 54.026 139.905 52.826 A 7.511 7.511 0 0 1 140.666 51.318 A 6.633 6.633 0 0 1 141.105 50.726 A 3.499 3.499 0 0 1 141.793 49.839 A 30.565 30.565 0 0 1 141.905 49.726 A 10.543 10.543 0 0 1 142.51 49.152 A 3.22 3.22 0 0 1 142.805 48.926 C 143.005 48.826 143.205 48.726 143.405 48.726 A 2.847 2.847 0 0 1 143.66 48.823 A 1.402 1.402 0 0 1 144.105 49.126 A 3.183 3.183 0 0 1 144.305 49.625 C 144.346 49.761 144.375 49.892 144.391 50.013 A 1.653 1.653 0 0 1 144.405 50.226 A 2.922 2.922 0 0 1 144.444 50.707 C 144.444 51.141 144.352 51.56 144.205 51.926 C 143.705 53.626 143.005 55.226 142.105 56.726 C 141.205 58.226 140.105 59.626 138.905 60.926 C 138.363 61.378 137.903 61.911 137.229 62.157 A 2.218 2.218 0 0 1 137.005 62.226 A 0.074 0.074 0 0 1 136.989 62.196 C 136.932 62.019 137.112 61.306 137.205 61.026 Z M 155.5 77.097 A 10.382 10.382 0 0 0 155.497 77.104 C 155.379 77.368 154.988 78.273 155.513 78.422 C 155.807 78.505 156.132 78.417 156.408 78.34 A 13.289 13.289 0 0 1 156.539 78.303 C 159.421 77.525 161.865 76.191 163.662 74.133 C 166.239 71.183 165.661 68.31 165.585 67.983 A 1.068 1.068 0 0 0 165.577 67.952 C 163.208 69.606 160.203 71.795 158.003 73.924 A 22.113 22.113 0 0 0 156.966 74.992 A 8.269 8.269 0 0 0 155.5 77.097 Z" vector-effect="non-scaling-stroke"/></g></svg>